<?xml version="1.0" encoding="UTF-8"?>
<svg xmlns="http://www.w3.org/2000/svg" xmlns:xlink="http://www.w3.org/1999/xlink" viewBox="0 0 175 70">
  <defs>
    <style>
      .cls-1 {
        fill: url(#_Безымянный_градиент_12);
      }

      .cls-2 {
        fill: url(#_Безымянный_градиент_3);
        mix-blend-mode: multiply;
      }

      .cls-3 {
        isolation: isolate;
      }

      .cls-4 {
        fill: #cf7d2b;
      }

      .cls-4, .cls-5 {
        fill-rule: evenodd;
      }

      .cls-6 {
        fill: url(#_Безымянный_градиент_8);
      }

      .cls-5 {
        fill: url(#_Безымянный_градиент_12-2);
      }

      .cls-7 {
        fill: url(#_Безымянный_градиент_21);
        mix-blend-mode: overlay;
      }
    </style>
    <linearGradient id="_Безымянный_градиент_8" data-name="Безымянный градиент 8" x1="87.5" y1="3742" x2="87.5" y2="3812" gradientTransform="translate(0 3812) scale(1 -1)" gradientUnits="userSpaceOnUse">
      <stop offset="0" stop-color="#77d6d3"/>
      <stop offset=".5" stop-color="#e2f4f3"/>
      <stop offset="1" stop-color="#77d6d3"/>
    </linearGradient>
    <linearGradient id="_Безымянный_градиент_3" data-name="Безымянный градиент 3" x1="49054.64" y1="2835.3" x2="50529.92" y2="2835.3" gradientTransform="translate(44206.83 2339.75) rotate(-90) scale(.05 -15.56) skewX(-.11)" gradientUnits="userSpaceOnUse">
      <stop offset="0" stop-color="#08082d"/>
      <stop offset="1" stop-color="#353772"/>
    </linearGradient>
    <linearGradient id="_Безымянный_градиент_21" data-name="Безымянный градиент 21" x1="3" y1="3777" x2="171" y2="3777" gradientTransform="translate(0 3812) scale(1 -1)" gradientUnits="userSpaceOnUse">
      <stop offset="0" stop-color="#8aaaa9"/>
      <stop offset=".5" stop-color="#fff"/>
      <stop offset="1" stop-color="#8aaaa9"/>
    </linearGradient>
    <radialGradient id="_Безымянный_градиент_12" data-name="Безымянный градиент 12" cx="47.86" cy="3777" fx="47.86" fy="3777" r="42.3" gradientTransform="translate(11.43 3812) scale(.99 -1)" gradientUnits="userSpaceOnUse">
      <stop offset="0" stop-color="#0e0e30"/>
      <stop offset="1" stop-color="#000"/>
    </radialGradient>
    <radialGradient id="_Безымянный_градиент_12-2" data-name="Безымянный градиент 12" cx="131.38" cy="29" fx="131.38" fy="29" r="14.82" gradientTransform="matrix(1,0,0,1,0,0)" xlink:href="#_Безымянный_градиент_12"/>
  </defs>
  <g class="cls-3">
    <g id="Layer_2" data-name="Layer 2">
      <g id="Decor">
        <g>
          <path class="cls-6" d="M0,70V0h175v10c-23.43,23.43-36.57,36.57-60,60H0Z"/>
          <path class="cls-2" d="M1.34,1v63.38c1.97,1.93,3.04,2.98,5.01,4.91l108.65-1.28,15-15c17-17,4-4,12-12l31-31V1H1.34Z"/>
          <path class="cls-7" d="M3,67V3h168v7c-23.43,23.43-33.57,33.57-57,57H3Z"/>
          <rect class="cls-1" x="7" y="6" width="104" height="58"/>
          <g>
            <path class="cls-5" d="M129.46,10c3.58,2.34,7.17,4.68,10.75,7.03-1.63,2.45-3.26,4.9-4.9,7.34,1.45.96,2.91,1.92,4.36,2.87-4.54,6.92-9.08,13.84-13.62,20.76h-.53c-.07-.14-.14-.28-.21-.43.85-5.43,1.7-10.86,2.55-16.29-1.77-2.55-3.55-5.11-5.32-7.66,2.31-4.54,4.61-9.08,6.92-13.62Z"/>
            <path class="cls-4" d="M128.92,10c3.58,2.34,7.17,4.68,10.75,7.03-1.63,2.45-3.26,4.9-4.9,7.34,1.45.96,2.91,1.92,4.36,2.87-4.54,6.92-9.08,13.84-13.62,20.76h-.53c-.07-.14-.14-.28-.21-.43l2.55-16.29c-1.77-2.55-3.55-5.11-5.32-7.66,2.31-4.54,4.61-9.08,6.92-13.62Z"/>
          </g>
        </g>
      </g>
    </g>
  </g>
</svg>