<?xml version="1.0" encoding="UTF-8"?>
<svg xmlns="http://www.w3.org/2000/svg" xmlns:xlink="http://www.w3.org/1999/xlink" viewBox="0 0 168.11 70">
  <defs>
    <style>
      .cls-1 {
        fill: #8db4cf;
      }

      .cls-2 {
        fill: url(#_Безымянный_градиент_12);
      }

      .cls-3 {
        fill: url(#_Безымянный_градиент_3);
        mix-blend-mode: multiply;
      }

      .cls-4 {
        isolation: isolate;
      }

      .cls-5 {
        fill: url(#_Безымянный_градиент_2);
      }

      .cls-6 {
        fill: url(#_Безымянный_градиент_21);
        mix-blend-mode: overlay;
      }
    </style>
    <linearGradient id="_Безымянный_градиент_2" data-name="Безымянный градиент 2" x1="84.05" y1="3745.85" x2="84.05" y2="3815.85" gradientTransform="translate(0 3815.85) scale(1 -1)" gradientUnits="userSpaceOnUse">
      <stop offset="0" stop-color="#77d6d3"/>
      <stop offset=".5" stop-color="#e2f4f3"/>
      <stop offset="1" stop-color="#77d6d3"/>
    </linearGradient>
    <linearGradient id="_Безымянный_градиент_3" data-name="Безымянный градиент 3" x1="49276.95" y1="2848.97" x2="50763.4" y2="2848.97" gradientTransform="translate(44415.9 2349.97) rotate(-90) scale(.05 -15.56) skewX(-.11)" gradientUnits="userSpaceOnUse">
      <stop offset="0" stop-color="#08082d"/>
      <stop offset="1" stop-color="#353772"/>
    </linearGradient>
    <linearGradient id="_Безымянный_градиент_21" data-name="Безымянный градиент 21" x1="3" y1="3780.39" x2="164.11" y2="3780.39" gradientTransform="translate(0 3815.85) scale(1 -1)" gradientUnits="userSpaceOnUse">
      <stop offset="0" stop-color="#8aaaa9"/>
      <stop offset=".5" stop-color="#fff"/>
      <stop offset="1" stop-color="#8aaaa9"/>
    </linearGradient>
    <radialGradient id="_Безымянный_градиент_12" data-name="Безымянный градиент 12" cx="112.22" cy="3780.85" fx="112.22" fy="3780.85" r="34.47" gradientTransform="translate(12.51 3815.85) scale(.99 -1)" gradientUnits="userSpaceOnUse">
      <stop offset="0" stop-color="#0e0e30"/>
      <stop offset="1" stop-color="#000"/>
    </radialGradient>
  </defs>
  <g class="cls-4">
    <g id="Layer_2" data-name="Layer 2">
      <g id="Decor">
        <g>
          <path class="cls-5" d="M0,70V0h168.11v10c-.9,27.93-.79,34.93-.9,60H0Z"/>
          <path class="cls-3" d="M.96.41v63.85c1.93,1.93,3.02,3.02,4.95,4.95h155.25c1.93-1.93,3.02-3.02,4.95-4.95V.41s-165.15,0-165.15,0Z"/>
          <path class="cls-6" d="M3,67V3h161v7c0,29.93.11,28.85.11,57.93l-161.11-.93Z"/>
          <rect class="cls-2" x="85.11" y="6" width="77.89" height="58"/>
          <polyline class="cls-1" points="82.07 63.96 4.18 63.96 4.18 5.96 82.07 5.96"/>
        </g>
      </g>
    </g>
  </g>
</svg>