<?xml version="1.0" encoding="UTF-8"?>
<svg xmlns="http://www.w3.org/2000/svg" xmlns:xlink="http://www.w3.org/1999/xlink" viewBox="0 0 272 86">
  <defs>
    <style>
      .cls-1 {
        fill: url(#_Безымянный_градиент_3);
        mix-blend-mode: multiply;
      }

      .cls-2 {
        isolation: isolate;
      }

      .cls-3 {
        fill: url(#_Безымянный_градиент_8);
      }

      .cls-4 {
        fill: url(#_Безымянный_градиент_6);
      }
    </style>
    <linearGradient id="_Безымянный_градиент_8" data-name="Безымянный градиент 8" x1="48544.75" y1="2816" x2="50402.81" y2="2816" gradientTransform="translate(43955.37 2332.87) rotate(-90) scale(.05 -15.56) skewX(-.11)" gradientUnits="userSpaceOnUse">
      <stop offset="0" stop-color="#77d6d3"/>
      <stop offset=".5" stop-color="#e2f4f3"/>
      <stop offset="1" stop-color="#77d6d3"/>
    </linearGradient>
    <linearGradient id="_Безымянный_градиент_3" data-name="Безымянный градиент 3" x1="48730.56" y1="2816" x2="50217" y2="2816" gradientTransform="translate(43955.37 2332.87) rotate(-90) scale(.05 -15.56) skewX(-.11)" gradientUnits="userSpaceOnUse">
      <stop offset="0" stop-color="#08082d"/>
      <stop offset="1" stop-color="#353772"/>
    </linearGradient>
    <linearGradient id="_Безымянный_градиент_6" data-name="Безымянный градиент 6" x1="48842.04" y1="2815.97" x2="50142.68" y2="2815.97" gradientTransform="translate(43955.37 2332.87) rotate(-90) scale(.05 -15.56) skewX(-.11)" gradientUnits="userSpaceOnUse">
      <stop offset="0" stop-color="#2d2d51"/>
      <stop offset=".5" stop-color="#466aaf"/>
      <stop offset="1" stop-color="#2d2d51"/>
    </linearGradient>
  </defs>
  <g class="cls-2">
    <g id="Layer_2" data-name="Layer 2">
      <g id="Decor">
        <g>
          <path class="cls-3" d="M0,0v79.76c2.44,2.44,3.81,3.81,6.24,6.24h259.51c2.44-2.44,3.81-3.81,6.24-6.24V0S0,0,0,0Z"/>
          <path class="cls-1" d="M4.53,8.6v62.56c2.44,2.44,3.81,3.81,6.24,6.24h250.45c2.44-2.44,3.81-3.81,6.24-6.24V8.6s-262.93,0-262.93,0Z"/>
          <path class="cls-4" d="M7.25,12.04v53.96c2.44,2.44,3.81,3.81,6.24,6.24h245.91c2.44-2.44,3.81-3.81,6.24-6.24V12.04s-258.4,0-258.4,0Z"/>
        </g>
      </g>
    </g>
  </g>
</svg>